<?xml version="1.0" encoding="UTF-8" standalone="no"?>
<!-- Created with Inkscape (http://www.inkscape.org/) -->

<svg
   width="190.22768mm"
   height="190.22768mm"
   viewBox="0 0 190.22768 190.22768"
   version="1.1"
   id="svg1"
   xmlSpace="preserve"
   xmlns="http://www.w3.org/2000/svg"
   xmlnsSvg="http://www.w3.org/2000/svg"><defs
     id="defs1" /><g
     id="layer1"
     transform="translate(-12.076224,-54.66969)"><rect
       style="fill:#0d1d35;fill-opacity:1;stroke:#0d1d35;stroke-width:0.264583;stroke-opacity:1"
       id="rect1"
       width="189.96309"
       height="189.96309"
       x="12.208514"
       y="54.801979" /><path
       style="fill:#c7c732;fill-opacity:1;stroke:#0d1d35;stroke-width:0.264583;stroke-opacity:1"
       d="m 99.085401,60.57067 c 3.458779,-0.461861 6.959169,6.373454 9.642029,11.318233 3.67281,6.769342 14.99649,25.234971 6.51028,41.212847 -8.40601,15.82687 -30.368744,31.99604 -42.024052,52.18479 -18.0885,31.33201 8.105462,66.74033 32.515602,68.71031 31.24264,2.52138 49.16944,-29.55847 31.69365,-52.75918 -8.77731,-11.65268 -19.16901,-7.63091 -26.98296,-2.86944 -8.57459,5.39492 -15.959222,-2.23757 -17.022452,-7.66119 -1.498393,-7.6434 2.280915,-11.41242 5.720444,-14.15669 5.345358,-4.26486 11.885818,-5.94832 18.722328,-5.75369 11.40993,0.51847 19.07535,9.24104 23.4714,16.0738 6.84543,10.63983 11.31831,23.5762 9.70298,38.17416 -2.7086,18.34405 -21.71637,35.06967 -45.59504,34.52326 -40.523521,-0.92732 -58.4928,-52.90222 -35.819098,-86.34698 14.220384,-20.97572 55.868228,-36.86028 38.363308,-70.88922 -3.08219,-5.991662 -6.15829,-7.809768 -11.769339,-9.858405 -1.959257,-0.554562 -3.535549,-3.997193 -3.012879,-5.698763 0.85187,-2.773307 3.287347,-5.784554 5.883799,-6.203842 z"
       id="path2" /><ellipse
       style="fill:#0d1d35;fill-opacity:1;stroke:#0d1d35;stroke-width:0.183925;stroke-opacity:1"
       id="path3"
       cx="105.07303"
       cy="152.77864"
       rx="8.6666365"
       ry="9.4845161"
       transform="matrix(0.98829307,0.15256738,0,1,0,0)" /></g></svg>
