<?xml version="1.0" encoding="UTF-8" standalone="no"?>
<!-- Created with Inkscape (http://www.inkscape.org/) -->

<svg
   width="210mm"
   height="297mm"
   viewBox="0 0 210 297"
   version="1.1"
   id="svg1"
   xmlSpace="preserve"
   xmlns="http://www.w3.org/2000/svg"
   xmlnsSvg="http://www.w3.org/2000/svg"><defs
     id="defs1"><filter
       style="color-interpolation-filters:sRGB"
       id="filter5"
       x="-0.011582206"
       y="-0.0065365294"
       width="1.0231644"
       height="1.0130731"><feGaussianBlur
         stdDeviation="0.10013257"
         id="feGaussianBlur5" /></filter></defs><g
     id="layer1"><rect
       style="opacity:1;fill:#0d1d35;fill-opacity:1;stroke:none;stroke-width:0.292932;stroke-linejoin:round;stroke-opacity:1"
       id="rect5"
       width="242.64172"
       height="286.41217"
       x="-14.309911"
       y="1.9044536"
       ry="0" /><path
       style="opacity:1;fill:#c7c732;fill-opacity:1;stroke:#000000;stroke-width:0.316;stroke-linejoin:round;stroke-opacity:1"
       d="m 105.18256,66.780789 c 0.92548,-0.320425 1.32857,-1.061564 1.57229,-1.089822 0.30716,-0.03561 0.25885,-0.120433 0.46441,-0.199741 0.20557,-0.0793 0.5197,0.176175 0.51802,0.220725 0.1505,0.04083 0.34033,0.417824 0.16363,0.696866 -0.16807,0.265412 -0.12892,0.40558 -0.55925,0.871006 -0.43034,0.465425 -1.29867,0.834105 -2.12289,1.110784 -0.81258,0.27277 -2.15199,0.349028 -2.62722,-0.0053 -0.47523,-0.354281 -1.09353,-0.784896 -1.54097,-2.112296 -0.44744,-1.3274 -0.31479,-3.036856 0.27586,-3.892612 0.62068,-0.899263 2.70721,-2.064877 3.83979,-1.947323 1.158,0.120197 2.78374,0.59394 3.98223,2.316923 1.18216,1.699512 0.66191,4.132874 -0.007,5.216202 -0.61771,1.328405 -3.43617,2.498386 -4.81099,2.360365 -1.35472,-0.136002 -3.41995,-0.269791 -4.446214,-1.572943 -1.519362,-1.929293 -1.611717,-4.224309 -1.560837,-5.10796 0.06581,-1.142984 1.13952,-4.53973 3.901611,-5.531247 1.56656,-0.562353 3.84605,-1.430553 6.25554,-0.63126 1.93964,0.643431 4.29257,2.764723 5.14677,4.53039 0.8483,1.753482 1.16332,4.528205 0.48192,7.05178 -0.82265,3.046658 -4.11528,5.705549 -5.2929,6.494589 -1.03457,0.69319 -6.37838,1.513023 -10.014288,0.635699 -4.7062,-1.135578 -6.871471,-5.127911 -8.63863,-7.410533 -2.530786,-3.26899 -1.867118,-12.937032 1.428737,-17.598091 3.135454,-4.434216 6.705421,-6.784575 13.289831,-7.614619 5.48614,-0.691595 11.07277,0.90133 15.47896,4.533004 3.90522,3.218759 7.821,8.106372 8.87287,13.692669 1.31781,6.998754 0.633,15.549441 -2.24584,21.439966 -2.66911,5.461377 -12.24872,15.895365 -18.60142,20.22029 -5.87977,4.00298 -22.706229,13.33833 -29.167863,23.05364 -6.461632,9.7153 -15.718081,22.47851 -14.691616,38.75899 1.026465,16.28046 7.643233,31.76079 18.966959,39.30339 11.273232,7.50895 18.85315,7.62564 25.13657,8.05915 6.51848,0.44972 18.67928,0.0642 26.15765,-7.43643 7.47837,-7.50059 7.92269,-6.40149 9.63222,-17.64104 1.70952,-11.23957 -0.94389,-16.92097 -2.63012,-20.00336 -1.68623,-3.08239 -6.25708,-10.05281 -12.95966,-12.6099 -6.70259,-2.55709 -9.65033,-2.21107 -11.39013,-3.86787 -1.73979,-1.6568 -5.40694,-8.44367 -4.63919,-16.41876 0.76774,-7.97508 3.59314,-13.99333 6.83697,-16.97858 1.24238,-1.14333 3.54159,-4.76826 17.06638,-1.59207 13.52478,3.1762 27.73848,14.31869 30.48251,17.27701 2.74404,2.95832 9.04042,7.97278 13.83084,20.31081 4.79043,12.33803 4.77223,24.11005 3.87639,32.06862 -0.89584,7.95857 -2.87406,18.25191 -8.43498,27.04153 -5.56093,8.7896 -20.85914,19.79101 -24.18296,22.92755 -3.5802,3.37847 -24.17841,11.96145 -33.24166,12.38332 -8.6496,0.40261 -27.757401,-0.47659 -36.082043,-2.95898 -9.157894,-2.73087 -29.745375,-15.45972 -33.925009,-22.2149 -5.274326,-8.52443 -14.838724,-30.13036 -15.621316,-36.25059 -1.336916,-10.45529 -0.805731,-31.76886 2.781003,-42.97276 3.749033,-11.71087 12.549679,-20.0629 21.593564,-28.26602 8.192242,-7.43065 23.478892,-15.809896 30.375205,-19.247034 6.420529,-3.200007 22.667726,-9.257958 26.448326,-13.417193 4.11522,-4.527365 6.44976,-12.729956 5.96595,-16.048003 -0.4838,-3.318047 -2.70127,-8.845569 -4.62496,-10.591193 -2.78859,-2.530462 -6.92451,-4.651404 -9.47709,-4.296807 -2.5365,0.352362 -7.432134,1.97141 -8.619397,3.706981 -1.105282,1.61573 -2.343626,3.968659 -2.525375,6.669811 -0.156437,2.324972 1.32897,5.011461 2.559501,6.8305 1.230529,1.819042 3.525401,2.771217 4.854951,2.925269 1.50886,0.17483 4.14821,-0.247845 4.95525,-0.696922 0.80698,-0.449043 2.25515,-1.119245 2.76833,-3.332051 0.51319,-2.212808 -0.046,-3.236427 -0.27499,-3.982253 -0.22941,-0.745826 -0.67086,-1.790613 -1.39302,-2.502296 -0.72216,-0.711684 -2.80874,-1.522992 -4.23634,-1.055912 -1.4276,0.46708 -2.04921,0.906483 -2.53561,1.312374 -0.87651,0.731431 -0.98932,1.299087 -1.09979,1.903422 -0.11047,0.604335 -0.15957,1.888165 0.17881,2.816669 0.32869,0.901921 1.09952,1.847665 1.59064,2.020538 0.49829,0.175399 1.36318,0.24055 2.07082,0.08003 0.66948,-0.15186 1.4507,-0.340465 1.88695,-0.688538 0.38444,-0.306737 1.22384,-1.0917 1.34982,-1.563809 0.12598,-0.472108 -0.0125,-0.913199 -0.0549,-1.341901 -0.23016,-2.327094 -2.20147,-2.831827 -3.42052,-2.660432 -2.48321,0.349133 -2.53177,3.012164 -1.69284,3.993651 0.68199,0.797892 1.08297,0.954115 2.35175,0.514834 z"
       id="path1" /><path
       style="opacity:1;fill:#0d1d35;fill-opacity:1;stroke:none;stroke-width:0.298641;stroke-linejoin:round;stroke-opacity:1;filter:url(#filter5)"
       id="path4"
       d="m 132.92018,132.54103 a 10.374455,18.382704 0 0 1 -10.37253,18.3827 10.374455,18.382704 0 0 1 -10.37638,-18.37588 10.374455,18.382704 0 0 1 10.36868,-18.38952 10.374455,18.382704 0 0 1 10.38023,18.36907 l -10.37446,0.0136 z"
       transform="rotate(7.3464062,112.64427,145.28285)" /></g></svg>
